<svg width="48" height="48" viewBox="0 0 48 48" fill="none" xmlns="http://www.w3.org/2000/svg">
<path opacity="0.5" d="M21.3342 12.268L20.3302 11.558C18.8974 10.5442 17.1854 9.99984 15.4302 10H14.2062C13.3962 10 12.5802 10.05 11.8182 10.32C7.05216 12.012 3.77416 18.19 4.01216 32.206C4.06016 35.03 4.72016 38.15 7.26816 39.368C8.13735 39.7859 9.08974 40.0019 10.0542 40C11.1382 40.0178 12.2031 39.7136 13.1142 39.126C13.9342 38.59 14.6542 37.894 15.3742 37.198C16.2622 36.338 17.1502 35.478 18.2222 34.922C19.3901 34.3163 20.6865 34.0001 22.0022 34H26.0002C27.3162 34 28.6122 34.316 29.7802 34.92C30.8522 35.478 31.7402 36.338 32.6302 37.198C33.3502 37.894 34.0702 38.59 34.8862 39.126C35.6662 39.638 36.6762 40 37.9482 40C38.9126 40.0019 39.865 39.7859 40.7342 39.368C43.2822 38.15 43.9422 35.028 43.9902 32.206C44.2282 18.19 40.9502 12.012 36.1842 10.322C35.4202 10.05 34.6002 10 33.7942 10H32.5702C30.8147 10.0003 29.1027 10.5454 27.6702 11.56L26.6662 12.268C25.8866 12.8195 24.9551 13.1157 24.0002 13.1157C23.0452 13.1157 22.1137 12.8195 21.3342 12.268Z" fill="white"/>
<path d="M33.5 18C33.8978 18 34.2794 18.158 34.5607 18.4393C34.842 18.7206 35 19.1022 35 19.5C35 19.8978 34.842 20.2794 34.5607 20.5607C34.2794 20.842 33.8978 21 33.5 21C33.1022 21 32.7206 20.842 32.4393 20.5607C32.158 20.2794 32 19.8978 32 19.5C32 19.1022 32.158 18.7206 32.4393 18.4393C32.7206 18.158 33.1022 18 33.5 18ZM15 18.5C15.3978 18.5 15.7794 18.658 16.0607 18.9393C16.342 19.2206 16.5 19.6022 16.5 20V21.5H18C18.3978 21.5 18.7794 21.658 19.0607 21.9393C19.342 22.2206 19.5 22.6022 19.5 23C19.5 23.3978 19.342 23.7794 19.0607 24.0607C18.7794 24.342 18.3978 24.5 18 24.5H16.5V26C16.5 26.3978 16.342 26.7794 16.0607 27.0607C15.7794 27.342 15.3978 27.5 15 27.5C14.6022 27.5 14.2206 27.342 13.9393 27.0607C13.658 26.7794 13.5 26.3978 13.5 26V24.5H12C11.6022 24.5 11.2206 24.342 10.9393 24.0607C10.658 23.7794 10.5 23.3978 10.5 23C10.5 22.6022 10.658 22.2206 10.9393 21.9393C11.2206 21.658 11.6022 21.5 12 21.5H13.5V20C13.5 19.6022 13.658 19.2206 13.9393 18.9393C14.2206 18.658 14.6022 18.5 15 18.5ZM38 22.5C38 22.8978 37.842 23.2794 37.5607 23.5607C37.2794 23.842 36.8978 24 36.5 24C36.1022 24 35.7206 23.842 35.4393 23.5607C35.158 23.2794 35 22.8978 35 22.5C35 22.1022 35.158 21.7206 35.4393 21.4393C35.7206 21.158 36.1022 21 36.5 21C36.8978 21 37.2794 21.158 37.5607 21.4393C37.842 21.7206 38 22.1022 38 22.5ZM30.5 24C30.8978 24 31.2794 23.842 31.5607 23.5607C31.842 23.2794 32 22.8978 32 22.5C32 22.1022 31.842 21.7206 31.5607 21.4393C31.2794 21.158 30.8978 21 30.5 21C30.1022 21 29.7206 21.158 29.4393 21.4393C29.158 21.7206 29 22.1022 29 22.5C29 22.8978 29.158 23.2794 29.4393 23.5607C29.7206 23.842 30.1022 24 30.5 24ZM35 25.5C35 25.1022 34.842 24.7206 34.5607 24.4393C34.2794 24.158 33.8978 24 33.5 24C33.1022 24 32.7206 24.158 32.4393 24.4393C32.158 24.7206 32 25.1022 32 25.5C32 25.8978 32.158 26.2794 32.4393 26.5607C32.7206 26.842 33.1022 27 33.5 27C33.8978 27 34.2794 26.842 34.5607 26.5607C34.842 26.2794 35 25.8978 35 25.5Z" fill="white"/>
</svg>
