<svg width="80" height="81" viewBox="0 0 80 81" fill="none" xmlns="http://www.w3.org/2000/svg">
<path d="M40 50.5011C42.6522 50.5011 45.1957 49.4475 47.0711 47.5722C48.9464 45.6968 50 43.1533 50 40.5011C50 37.8489 48.9464 35.3054 47.0711 33.43C45.1957 31.5547 42.6522 30.5011 40 30.5011C37.3478 30.5011 34.8043 31.5547 32.9289 33.43C31.0536 35.3054 30 37.8489 30 40.5011C30 43.1533 31.0536 45.6968 32.9289 47.5722C34.8043 49.4475 37.3478 50.5011 40 50.5011Z" fill="#282828"/>
<path fill-rule="evenodd" clip-rule="evenodd" d="M40 10.5012C40.8841 10.5012 41.7319 10.8524 42.357 11.4775C42.9821 12.1027 43.3333 12.9505 43.3333 13.8346V17.4012C48.3199 18.122 52.9394 20.4365 56.502 23.9992C60.0647 27.5618 62.3792 32.1814 63.1 37.1679H66.6667C67.5507 37.1679 68.3986 37.5191 69.0237 38.1442C69.6488 38.7693 70 39.6172 70 40.5012C70 41.3853 69.6488 42.2331 69.0237 42.8582C68.3986 43.4834 67.5507 43.8346 66.6667 43.8346H63.1C62.3792 48.8211 60.0647 53.4406 56.502 57.0033C52.9394 60.5659 48.3199 62.8805 43.3333 63.6012V67.1679C43.3333 68.0519 42.9821 68.8998 42.357 69.5249C41.7319 70.15 40.8841 70.5012 40 70.5012C39.1159 70.5012 38.2681 70.15 37.643 69.5249C37.0179 68.8998 36.6667 68.0519 36.6667 67.1679V63.6012C31.6802 62.8805 27.0606 60.5659 23.498 57.0033C19.9353 53.4406 17.6208 48.8211 16.9 43.8346H13.3333C12.4493 43.8346 11.6014 43.4834 10.9763 42.8582C10.3512 42.2331 10 41.3853 10 40.5012C10 39.6172 10.3512 38.7693 10.9763 38.1442C11.6014 37.5191 12.4493 37.1679 13.3333 37.1679H16.9C17.6213 32.1816 19.936 27.5623 23.4985 23.9998C27.0611 20.4372 31.6804 18.1225 36.6667 17.4012V13.8346C36.6667 12.9505 37.0179 12.1027 37.643 11.4775C38.2681 10.8524 39.1159 10.5012 40 10.5012ZM23.3333 40.5012C23.3333 36.0809 25.0893 31.8417 28.2149 28.7161C31.3405 25.5905 35.5797 23.8346 40 23.8346C44.4203 23.8346 48.6595 25.5905 51.7851 28.7161C54.9107 31.8417 56.6667 36.0809 56.6667 40.5012C56.6667 44.9215 54.9107 49.1607 51.7851 52.2863C48.6595 55.4119 44.4203 57.1679 40 57.1679C35.5797 57.1679 31.3405 55.4119 28.2149 52.2863C25.0893 49.1607 23.3333 44.9215 23.3333 40.5012Z" fill="#282828" fill-opacity="0.3"/>
</svg>
